<svg width="18" height="13" viewBox="0 0 18 13" fill="none" xmlns="http://www.w3.org/2000/svg">
<path fill-rule="evenodd" clip-rule="evenodd" d="M12.0063 5.77283L7.49389 3.51717C7.49389 3.51717 6.24048 2.94724 6.24048 4.01862V9.03095C6.24048 9.03095 6.26367 9.79548 7.49389 9.28146C8.34986 8.92368 12.0063 7.0258 12.0063 7.0258C12.0063 7.0258 12.9392 6.42813 12.0063 5.77283ZM17.5213 10.7852C16.9624 12.3749 15.7669 12.5797 14.7637 12.7901C13.2852 13.1002 3.77236 13.0612 2.22922 12.5394C1.26706 12.2141 0.675032 12.0741 0.223857 9.78271C-0.0650079 8.3165 -0.0840778 4.00304 0.223857 2.51494C0.52204 1.07408 1.27096 0.397534 2.73067 0.259278C6.65148 -0.112151 13.205 -0.0597085 15.265 0.259278C17.1748 0.554861 17.5739 1.69385 17.772 2.76545C18.0927 4.50037 18.1304 9.05243 17.5213 10.7852Z" fill="white"/>
</svg>
